<svg width="46" height="46" viewBox="0 0 46 46" fill="none" xmlns="http://www.w3.org/2000/svg">
<g clip-path="url(#clip0)">
<path d="M19.2094 21.4667C19.4824 21.4663 19.7347 21.3207 19.872 21.0845C20.0088 20.8483 20.0099 20.5567 19.8741 20.3198L16.9085 15.1295V9.19986C16.9085 8.77661 16.5653 8.43338 16.142 8.43338C15.7184 8.43338 15.3752 8.77661 15.3752 9.19986V15.3335C15.3752 15.4668 15.41 15.5977 15.4763 15.7135L18.5429 21.0803C18.6794 21.3196 18.9339 21.467 19.2094 21.4667Z" fill="url(#paint0_linear)"/>
<path d="M28.4085 25.3001V24.4642C28.776 24.3564 29.0901 24.1157 29.2894 23.7889L33.5566 16.6765C33.6995 16.4383 33.7753 16.1656 33.7753 15.8876V6.90007C33.7746 6.05358 33.0885 5.36747 32.242 5.36676H29.9418V1.53331C29.9411 0.686817 29.255 0.000705719 28.4085 3.8147e-06H26.1087C25.2622 0.000705719 24.5761 0.686817 24.5754 1.53331V5.36676H21.5085V1.53331C21.5078 0.686817 20.8216 0.000705719 19.9751 3.8147e-06H17.6754C16.8289 0.000705719 16.1427 0.686817 16.142 1.53331V5.36676H13.8419C12.9954 5.36747 12.3093 6.05358 12.3086 6.90007V15.8876C12.3086 16.1656 12.384 16.4383 12.5272 16.6765L16.7948 23.7896C16.9942 24.1164 17.3083 24.3568 17.6754 24.4642V25.3001C17.6782 26.9689 19.0153 28.3292 20.6841 28.3608C21.5 30.7722 22.9589 32.9155 24.9029 34.559C25.8592 35.3851 26.294 36.6636 26.0389 37.9014C25.7694 39.2438 24.7204 40.2935 23.3776 40.5634C22.3585 40.7803 21.2958 40.5252 20.4861 39.8689C19.6765 39.2126 19.2069 38.2254 19.2087 37.1834V36.4166C19.2087 34.9348 18.0074 33.7332 16.5253 33.7332C15.0432 33.7332 13.8419 34.9348 13.8419 36.4166V37.1834C13.8423 39.5228 14.7723 41.7665 16.4274 43.4198C18.0825 45.0735 20.3268 46.0018 22.6662 46C23.2481 45.9982 23.8282 45.9421 24.3996 45.8322C27.7077 45.1672 30.3465 42.6726 31.1965 39.407C32.0465 36.1414 30.9585 32.6772 28.3945 30.4837C27.6196 29.8211 26.9615 29.0329 26.4478 28.152C27.627 27.6964 28.4057 26.5639 28.4085 25.3001ZM26.1087 1.53331H28.4085V5.36676H26.1087V1.53331ZM17.6754 1.53331H19.9751V5.36676H17.6754V1.53331ZM13.8419 15.8876V6.90007H32.242V15.8873L27.9744 23H18.1091L13.8419 15.8876ZM27.3953 31.6468C29.513 33.4566 30.4135 36.3158 29.7148 39.0129C29.0164 41.7096 26.8412 43.7722 24.1111 44.3267C23.6349 44.4179 23.1513 44.4649 22.6662 44.4667C20.7336 44.4684 18.8791 43.7016 17.5115 42.3357C16.1441 40.9698 15.3756 39.1161 15.3752 37.1834V36.4166C15.3752 35.7817 15.8901 35.2668 16.5253 35.2668C17.1605 35.2668 17.6754 35.7817 17.6754 36.4166V37.1834C17.6743 39.4888 19.2539 41.4941 21.4955 42.0332C23.7366 42.5723 26.0554 41.5043 27.1026 39.4505C28.1502 37.3971 27.6533 34.8931 25.901 33.3952C24.3027 32.0451 23.0684 30.3163 22.31 28.3668H24.8411C25.4654 29.6193 26.334 30.7343 27.3953 31.6468ZM26.8752 25.3001C26.8745 26.1466 26.1884 26.8324 25.3419 26.8335H20.742C19.8955 26.8324 19.2094 26.1466 19.2087 25.3001V24.5333H26.8752V25.3001Z" fill="url(#paint1_linear)"/>
<path d="M23.0418 15.3335C24.7355 15.3335 26.1087 13.9602 26.1087 12.2668C26.1087 10.5731 24.7355 9.19986 23.0418 9.19986C21.3484 9.19986 19.9751 10.5731 19.9751 12.2668C19.9772 13.9595 21.3491 15.3313 23.0418 15.3335ZM23.0418 10.7332C23.8886 10.7332 24.5754 11.42 24.5754 12.2668C24.5754 13.1137 23.8886 13.8001 23.0418 13.8001C22.1953 13.8001 21.5085 13.1137 21.5085 12.2668C21.5095 11.4203 22.1953 10.7342 23.0418 10.7332Z" fill="url(#paint2_linear)"/>
</g>
<defs>
<linearGradient id="paint0_linear" x1="17.6752" y1="8.43338" x2="17.6752" y2="21.4667" gradientUnits="userSpaceOnUse">
<stop stop-color="#449EF1"/>
<stop offset="1" stop-color="#5279DC"/>
</linearGradient>
<linearGradient id="paint1_linear" x1="23.0419" y1="3.8147e-06" x2="23.0419" y2="46" gradientUnits="userSpaceOnUse">
<stop stop-color="#449EF1"/>
<stop offset="1" stop-color="#5279DC"/>
</linearGradient>
<linearGradient id="paint2_linear" x1="23.0419" y1="9.19986" x2="23.0419" y2="15.3335" gradientUnits="userSpaceOnUse">
<stop stop-color="#449EF1"/>
<stop offset="1" stop-color="#5279DC"/>
</linearGradient>
<clipPath id="clip0">
<rect width="46" height="46" fill="white"/>
</clipPath>
</defs>
</svg>
