<svg width="46" height="46" viewBox="0 0 46 46" fill="none" xmlns="http://www.w3.org/2000/svg">
<g clip-path="url(#clip0)">
<path d="M6.13358 31.4332H5.36692C4.94353 31.4332 4.60026 31.7765 4.60026 32.1999V32.9666C4.60026 33.3899 4.94353 33.7332 5.36692 33.7332H6.13358C6.55697 33.7332 6.90024 33.3899 6.90024 32.9666V32.1999C6.90024 31.7765 6.55697 31.4332 6.13358 31.4332Z" fill="url(#paint0_linear)"/>
<path d="M42.1667 40.6332H41.4C40.9766 40.6332 40.6334 40.9764 40.6334 41.3998V42.1665C40.6334 42.5899 40.9766 42.9332 41.4 42.9332H42.1667C42.5901 42.9332 42.9333 42.5899 42.9333 42.1665V41.3998C42.9333 40.9764 42.5901 40.6332 42.1667 40.6332Z" fill="url(#paint1_linear)"/>
<path d="M37.5667 40.6332H36.8001C36.3767 40.6332 36.0334 40.9764 36.0334 41.3998V42.1665C36.0334 42.5899 36.3767 42.9332 36.8001 42.9332H37.5667C37.9901 42.9332 38.3334 42.5899 38.3334 42.1665V41.3998C38.3334 40.9764 37.9901 40.6332 37.5667 40.6332Z" fill="url(#paint2_linear)"/>
<path d="M32.9668 40.6332H32.2001C31.7767 40.6332 31.4334 40.9764 31.4334 41.3998V42.1665C31.4334 42.5899 31.7767 42.9332 32.2001 42.9332H32.9668C33.3901 42.9332 33.7334 42.5899 33.7334 42.1665V41.3998C33.7334 40.9764 33.3901 40.6332 32.9668 40.6332Z" fill="url(#paint3_linear)"/>
<path d="M28.3668 40.6332H27.6001C27.1767 40.6332 26.8335 40.9764 26.8335 41.3998V42.1665C26.8335 42.5899 27.1767 42.9332 27.6001 42.9332H28.3668C28.7902 42.9332 29.1334 42.5899 29.1334 42.1665V41.3998C29.1334 40.9764 28.7902 40.6332 28.3668 40.6332Z" fill="url(#paint4_linear)"/>
<path d="M45.2342 4.60007C45.2339 4.60007 45.2336 4.60007 45.2333 4.60007H39.1V0.766759C39.1004 0.343753 38.7577 0.000480141 38.3346 0.000192642C38.2852 0.000192642 38.2359 0.00488845 38.1873 0.0143759L14.4208 4.61435L14.4237 4.62901C14.0653 4.69264 13.8031 5.00276 13.8002 5.36683V8.43348C13.7999 8.85667 14.1428 9.19985 14.566 9.20014C14.5663 9.20014 14.5666 9.20014 14.5669 9.20014V14.5668H13.0335C12.6103 14.5665 12.2672 14.9094 12.2669 15.3326C12.2669 15.3329 12.2669 15.3331 12.2669 15.3334V17.6334H10.7336C10.3104 17.6331 9.96718 17.976 9.96689 18.3992C9.96689 18.3995 9.96689 18.3998 9.96689 18.4001V24.5334C9.9666 24.9566 10.3095 25.2998 10.7327 25.3C10.733 25.3 10.7333 25.3 10.7336 25.3H19.9335C20.3567 25.3003 20.6999 24.9574 20.7002 24.5342C20.7002 24.534 20.7002 24.5337 20.7002 24.5334V18.4001C20.7004 17.9769 20.3576 17.6337 19.9344 17.6334C19.9341 17.6334 19.9338 17.6334 19.9335 17.6334H18.4002V15.3334C18.4005 14.9102 18.0576 14.5671 17.6344 14.5668C17.6341 14.5668 17.6338 14.5668 17.6335 14.5668H16.1002V9.20014H30.5398L26.1758 37.5666H24.5335C24.1103 37.5663 23.7671 37.9092 23.7668 38.3324C23.7668 38.3327 23.7668 38.333 23.7668 38.3333V45.2333C23.7665 45.6565 24.1094 45.9996 24.5326 45.9999C24.5329 45.9999 24.5332 45.9999 24.5335 45.9999H45.2333C45.6565 46.0002 45.9997 45.6573 46 45.2341C46 45.2338 46 45.2335 46 45.2333V38.3333C46.0003 37.9101 45.6574 37.5669 45.2342 37.5666C45.2339 37.5666 45.2336 37.5666 45.2333 37.5666H43.5911L39.227 9.20014H45.2333C45.6565 9.20043 45.9997 8.85754 46 8.43434C46 8.43405 46 8.43376 46 8.43348V5.36683C46.0003 4.94353 45.6574 4.60036 45.2342 4.60007ZM37.5667 1.69586V4.60007H22.5616L37.5667 1.69586ZM19.1668 19.1666V23.7666H11.5002V19.1666H19.1668ZM16.8669 16.1V17.6333H13.8002V16.1H16.8669ZM30.498 19.5562L38.8267 23.7202L29.2101 27.9277L30.498 19.5562ZM37.259 13.863L30.8833 17.0511L31.7285 11.5575L37.259 13.863ZM31.9687 9.99651L32.0912 9.20004H37.6757L38.1977 12.5934L31.9687 9.99651ZM44.4667 39.0999V44.4665H25.3001V39.0999H44.4667ZM42.0394 37.5665H27.7274L28.8522 30.255L41.9772 37.1623L42.0394 37.5665ZM41.6872 35.2772L30.1336 29.1969L40.0822 24.8443L41.6872 35.2772ZM39.714 22.4497L31.6147 18.4001L38.557 14.9289L39.714 22.4497ZM44.4667 7.66672H15.3335V6.13339H44.4667V7.66672Z" fill="url(#paint5_linear)"/>
<path d="M21.5874 35.6267C21.4473 35.4027 21.2017 35.2666 20.9375 35.2665H9.96689V29.1332C9.96718 28.7101 9.62429 28.3669 9.20109 28.3666C9.2008 28.3666 9.20051 28.3666 9.20023 28.3666H2.30027C1.87707 28.3663 1.5339 28.7092 1.53361 29.1324C1.53361 29.1327 1.53361 29.133 1.53361 29.1332V35.2665H0.766946C0.343653 35.2663 0.000283968 35.6091 -3.53059e-06 36.0324C-9.93633e-05 36.1436 0.0240505 36.2535 0.0706252 36.3544L3.80293 44.4429C3.72789 44.4558 3.65209 44.4637 3.57609 44.4665C3.08332 44.4649 2.6146 44.2534 2.28762 43.8848C1.68435 43.2727 0.859808 42.9297 0.0003798 42.9332V44.4665C0.493152 44.468 0.96187 44.6796 1.28885 45.0482C2.54426 46.3114 4.58598 46.3178 5.84915 45.0624C5.85384 45.0577 5.85864 45.0529 5.86333 45.0482C6.49036 44.3367 7.57529 44.2683 8.28675 44.8953C8.34089 44.9431 8.39188 44.994 8.4396 45.0482C9.69549 46.3116 11.7378 46.3178 13.0011 45.0619C13.0055 45.0576 13.0098 45.0533 13.0141 45.049C13.644 44.3357 14.7328 44.2681 15.4461 44.898C15.4995 44.9452 15.5499 44.9956 15.5971 45.049C16.8563 46.3132 18.902 46.3172 20.1663 45.058C20.1692 45.055 20.1723 45.0519 20.1753 45.049C20.5032 44.6798 20.973 44.4679 21.4668 44.4665V42.9332C20.6071 42.9295 19.7821 43.2722 19.178 43.884C18.8499 44.2534 18.3799 44.4652 17.8858 44.4665C17.8246 44.4634 17.7636 44.4571 17.703 44.4475L21.6271 36.3679C21.7423 36.1305 21.7274 35.8505 21.5874 35.6267ZM3.06693 29.8999H8.43357V35.2665H3.06693V29.8999ZM16.3655 43.6925C15.798 43.1903 15.0626 42.9193 14.3049 42.9333C13.4453 42.9294 12.6205 43.2721 12.0168 43.8841C11.3893 44.5963 10.3033 44.6649 9.59103 44.0374C9.53698 43.9898 9.486 43.9389 9.43837 43.8849C8.8351 43.2728 8.01056 42.9298 7.15113 42.9333C6.41111 42.919 5.69189 43.1788 5.13184 43.6626L1.96495 36.8H19.7127L16.3655 43.6925Z" fill="url(#paint6_linear)"/>
</g>
<defs>
<linearGradient id="paint0_linear" x1="5.75025" y1="31.4332" x2="5.75025" y2="33.7332" gradientUnits="userSpaceOnUse">
<stop stop-color="#449EF1"/>
<stop offset="1" stop-color="#5279DC"/>
</linearGradient>
<linearGradient id="paint1_linear" x1="41.7834" y1="40.6332" x2="41.7834" y2="42.9332" gradientUnits="userSpaceOnUse">
<stop stop-color="#449EF1"/>
<stop offset="1" stop-color="#5279DC"/>
</linearGradient>
<linearGradient id="paint2_linear" x1="37.1834" y1="40.6332" x2="37.1834" y2="42.9332" gradientUnits="userSpaceOnUse">
<stop stop-color="#449EF1"/>
<stop offset="1" stop-color="#5279DC"/>
</linearGradient>
<linearGradient id="paint3_linear" x1="32.5834" y1="40.6332" x2="32.5834" y2="42.9332" gradientUnits="userSpaceOnUse">
<stop stop-color="#449EF1"/>
<stop offset="1" stop-color="#5279DC"/>
</linearGradient>
<linearGradient id="paint4_linear" x1="27.9834" y1="40.6332" x2="27.9834" y2="42.9332" gradientUnits="userSpaceOnUse">
<stop stop-color="#449EF1"/>
<stop offset="1" stop-color="#5279DC"/>
</linearGradient>
<linearGradient id="paint5_linear" x1="27.9834" y1="0.000192642" x2="27.9834" y2="45.9999" gradientUnits="userSpaceOnUse">
<stop stop-color="#449EF1"/>
<stop offset="1" stop-color="#5279DC"/>
</linearGradient>
<linearGradient id="paint6_linear" x1="10.852" y1="28.3666" x2="10.852" y2="45.9998" gradientUnits="userSpaceOnUse">
<stop stop-color="#449EF1"/>
<stop offset="1" stop-color="#5279DC"/>
</linearGradient>
<clipPath id="clip0">
<rect width="46" height="46" fill="white"/>
</clipPath>
</defs>
</svg>
