<svg width="47" height="46" viewBox="0 0 47 46" fill="none" xmlns="http://www.w3.org/2000/svg">
<path d="M46.2267 20.1862H41.2761V18.6146C41.2761 18.1965 40.9625 17.8223 40.5353 17.8223H36.4455V12.4685C36.4455 12.0504 36.1319 11.6762 35.7047 11.6762H31.4217V6.32234C31.4217 5.90422 31.1081 5.53006 30.6809 5.53006H20.4401C20.0001 5.5441 19.6472 5.8913 19.6351 6.32234V11.6762H15.2231C14.7831 11.6902 14.4302 12.0374 14.4181 12.4685V17.8223H9.81285C9.37282 17.8364 9.01996 18.1836 9.00788 18.6146V20.1862H8.62144V14.4541C8.62446 14.029 8.28216 13.6789 7.84855 13.6619H7.65532V11.7708C7.65532 11.353 7.30926 11.0143 6.88243 11.0143H4.0807C3.65387 11.0143 3.30781 11.353 3.30781 11.7708V13.6619H3.2112C2.77758 13.6789 2.43566 14.029 2.43831 14.4541V20.1862H0.772514C0.520418 20.1892 0.285305 20.3107 0.141143 20.5127C-0.00339659 20.7148 -0.0392485 20.9726 0.0445318 21.2053L3.64897 31.1285C3.03232 31.3235 2.3866 31.4162 1.73863 31.4022C1.3118 31.4022 0.965359 31.7409 0.965359 32.1586C0.965359 32.5767 1.3118 32.9154 1.73863 32.9154C3.70897 32.9154 4.74339 32.3644 5.65516 31.8779C6.51372 31.4199 7.25529 31.0247 8.83164 31.0247C10.408 31.0247 11.1496 31.4199 12.0085 31.8779C12.9206 32.3644 13.9547 32.9158 15.9247 32.9158C17.895 32.9158 18.9287 32.3644 19.8408 31.8779C20.6994 31.4199 21.4413 31.0247 23.0173 31.0247C24.5936 31.0247 25.3352 31.4199 26.1938 31.8779C27.1059 32.3644 28.14 32.9158 30.1099 32.9158C32.0799 32.9158 33.1136 32.3644 34.0257 31.8779C34.8843 31.4199 35.6258 31.0247 37.2022 31.0247C38.7782 31.0247 39.5197 31.4199 40.3783 31.8779C41.2904 32.3644 42.3245 32.9158 44.2944 32.9158C44.7213 32.9158 45.0673 32.5771 45.0673 32.1594C45.0673 31.7412 44.7213 31.4029 44.2944 31.4029C43.6672 31.4158 43.0423 31.3305 42.443 31.1495L46.9328 21.2622C47.0396 21.0269 47.0181 20.7547 46.8758 20.5382C46.7335 20.3214 46.4897 20.1892 46.2267 20.1862ZM39.7303 20.1862H37.5082C37.2928 20.1862 37.0871 20.2741 36.9407 20.4289L33.5959 23.9685H31.0353V19.3352H39.7303V20.1862ZM29.4895 19.3352V23.9685H20.7945V19.3352H29.4895ZM34.8997 17.8223H26.2047V13.1891H34.8997V17.8223ZM21.1809 7.04296H29.8759V11.6762H21.1809V7.04296ZM15.9639 13.1891H24.6589V17.8223H15.9639V13.1891ZM10.5537 19.3352H19.2487V23.9685H16.4179L13.3652 20.4529C13.218 20.2837 13.0025 20.1862 12.7757 20.1862H10.5537V19.3352ZM4.85359 12.5272H6.10954V13.6619H4.85359V12.5272ZM3.98409 15.1748H7.07565V20.1862H3.98409V15.1748ZM41.0421 30.5028C40.1481 30.0267 39.1174 29.5085 37.2022 29.5085C35.2322 29.5085 34.1982 30.0614 33.286 30.5478C32.4275 31.0058 31.6859 31.4022 30.1099 31.4022C28.534 31.4022 27.792 31.007 26.9334 30.549C26.0213 30.0625 24.9876 29.5114 23.0173 29.5114C21.0473 29.5114 20.0137 30.0629 19.1011 30.5493C18.2426 31.0073 17.501 31.4029 15.9247 31.4029C14.3483 31.4029 13.6067 31.0073 12.7482 30.5493C11.836 30.0629 10.802 29.5118 8.83164 29.5118C6.95904 29.5118 5.93254 30.0034 5.0521 30.4703L1.86769 21.6991H12.4183L15.4714 25.2147C15.6182 25.3842 15.8337 25.4813 16.0605 25.4813H33.9336C34.1491 25.4813 34.3548 25.3934 34.5012 25.2387L37.8464 21.6991H45.0375L41.0421 30.5028Z" fill="url(#paint0_linear)"/>
<path d="M1.73862 36.698C3.70897 36.698 4.74339 36.1466 5.65516 35.6601C6.51372 35.2021 7.25528 34.8069 8.83164 34.8069C10.408 34.8069 11.1496 35.2021 12.0085 35.6601C12.9206 36.1466 13.9547 36.698 15.9247 36.698C17.895 36.698 18.9287 36.1466 19.8408 35.6601C20.6994 35.2021 21.4413 34.8069 23.0173 34.8069C24.5936 34.8069 25.3352 35.2021 26.1938 35.6601C27.1059 36.1466 28.14 36.698 30.1099 36.698C32.0799 36.698 33.1136 36.1466 34.0257 35.6601C34.8843 35.2021 35.6258 34.8069 37.2022 34.8069C38.7782 34.8069 39.5197 35.2021 40.3783 35.6601C41.2904 36.1466 42.3245 36.698 44.2944 36.698C44.7213 36.698 45.0673 36.3593 45.0673 35.9416C45.0673 35.5235 44.7213 35.1851 44.2944 35.1851C42.7181 35.1851 41.9765 34.7896 41.118 34.3316C40.2058 33.8451 39.1722 33.294 37.2022 33.294C35.2322 33.294 34.1982 33.8451 33.2864 34.3319C32.4278 34.7896 31.6863 35.1851 30.1099 35.1851C28.534 35.1851 27.7924 34.7896 26.9335 34.3319C26.0217 33.8455 24.9876 33.294 23.0177 33.294C21.0477 33.294 20.0137 33.8455 19.1015 34.3319C18.2426 34.7896 17.5014 35.1851 15.925 35.1851C14.3487 35.1851 13.6071 34.7896 12.7482 34.3319C11.836 33.8455 10.802 33.294 8.83201 33.294C6.86167 33.294 5.82762 33.8451 4.91548 34.3319C4.05654 34.7896 3.31497 35.1851 1.73862 35.1851C1.31179 35.1851 0.965729 35.5238 0.965729 35.9416C0.965729 36.3593 1.31179 36.698 1.73862 36.698Z" fill="url(#paint1_linear)"/>
<path d="M1.73862 40.4803C3.70897 40.4803 4.74339 39.9288 5.65516 39.4424C6.51372 38.9844 7.25528 38.5892 8.83164 38.5892C10.408 38.5892 11.1496 38.9844 12.0085 39.4424C12.9206 39.9288 13.9547 40.4803 15.9247 40.4803C17.895 40.4803 18.9287 39.9288 19.8408 39.4424C20.6994 38.9844 21.4413 38.5892 23.0173 38.5892C24.5936 38.5892 25.3352 38.9844 26.1938 39.4424C27.1059 39.9288 28.14 40.4803 30.1099 40.4803C32.0799 40.4803 33.1136 39.9288 34.0257 39.4424C34.8843 38.9844 35.6258 38.5892 37.2022 38.5892C38.7782 38.5892 39.5197 38.9844 40.3783 39.4424C41.2904 39.9288 42.3245 40.4803 44.2944 40.4803C44.7213 40.4803 45.0673 40.1416 45.0673 39.7238C45.0673 39.3057 44.7213 38.9674 44.2944 38.9674C42.7181 38.9674 41.9765 38.5718 41.118 38.1138C40.2058 37.6274 39.1722 37.0763 37.2022 37.0763C35.2322 37.0763 34.1982 37.6274 33.2864 38.1142C32.4278 38.5718 31.6863 38.9674 30.1099 38.9674C28.534 38.9674 27.7924 38.5718 26.9335 38.1142C26.0217 37.6277 24.9876 37.0763 23.0177 37.0763C21.0477 37.0763 20.0137 37.6277 19.1015 38.1142C18.2426 38.5718 17.5014 38.9674 15.925 38.9674C14.3487 38.9674 13.6071 38.5718 12.7482 38.1142C11.836 37.6277 10.802 37.0763 8.83201 37.0763C6.86167 37.0763 5.82762 37.6274 4.91548 38.1142C4.05654 38.5718 3.31497 38.9674 1.73862 38.9674C1.31179 38.9674 0.965729 39.3061 0.965729 39.7238C0.965729 40.1416 1.31179 40.4803 1.73862 40.4803Z" fill="url(#paint2_linear)"/>
<defs>
<linearGradient id="paint0_linear" x1="23.5" y1="5.53006" x2="23.5" y2="32.9158" gradientUnits="userSpaceOnUse">
<stop stop-color="#449EF1"/>
<stop offset="1" stop-color="#5279DC"/>
</linearGradient>
<linearGradient id="paint1_linear" x1="23.0165" y1="33.294" x2="23.0165" y2="36.698" gradientUnits="userSpaceOnUse">
<stop stop-color="#449EF1"/>
<stop offset="1" stop-color="#5279DC"/>
</linearGradient>
<linearGradient id="paint2_linear" x1="23.0165" y1="37.0763" x2="23.0165" y2="40.4803" gradientUnits="userSpaceOnUse">
<stop stop-color="#449EF1"/>
<stop offset="1" stop-color="#5279DC"/>
</linearGradient>
</defs>
</svg>
