<svg width="22" height="22" viewBox="0 0 22 22" fill="none" xmlns="http://www.w3.org/2000/svg">
<path d="M11 0C6.60667 0 3.03244 3.57423 3.03244 7.96752C3.03244 13.4197 10.1626 21.4239 10.4662 21.762C10.7513 22.0796 11.2492 22.079 11.5338 21.762C11.8374 21.4239 18.9676 13.4197 18.9676 7.96752C18.9675 3.57423 15.3933 0 11 0ZM11 11.9762C8.78961 11.9762 6.99137 10.1779 6.99137 7.96752C6.99137 5.75712 8.78965 3.95888 11 3.95888C13.2104 3.95888 15.0086 5.75717 15.0086 7.96757C15.0086 10.178 13.2104 11.9762 11 11.9762Z" fill="#3B7FB2"/>
</svg>
