<svg width="94" height="85" viewBox="0 0 94 85" fill="none" xmlns="http://www.w3.org/2000/svg">
<path d="M93.5496 68.9735C92.8842 68.3423 91.7247 68.2757 90.9594 68.8245C89.0018 70.2285 87.1901 71.6842 84.6214 72.2698C81.766 72.9207 79.0523 72.407 76.468 71.3412L86.0294 44.8046C86.2673 44.1444 85.935 43.4349 85.221 43.0779L76.375 38.6565V25.7455C76.375 24.9092 75.553 24.231 74.539 24.231H70.8672V19.6877C70.8672 18.8514 70.0452 18.1733 69.0312 18.1733H63.248V13.63C63.248 12.7937 62.4261 12.1155 61.4121 12.1155H52.5078V1.51444C52.5078 0.678166 51.6859 0 50.6719 0H43.3281C42.3142 0 41.4922 0.678166 41.4922 1.51444V12.1155H32.5879C31.5739 12.1155 30.752 12.7937 30.752 13.63V18.1733H24.9688C23.9548 18.1733 23.1329 18.8514 23.1329 19.6877V24.231H19.461C18.447 24.231 17.6251 24.9092 17.6251 25.7455V38.6565L8.77917 43.0778C8.06499 43.4347 7.73287 44.1443 7.9708 44.8044C7.9708 44.8044 17.5087 71.2753 17.5127 71.2868C17.3499 70.8349 14.412 70.5373 13.8926 70.4819C8.54692 69.9112 4.48198 72.1202 0.631291 74.8821C-0.133926 75.4309 -0.214707 76.3873 0.450452 77.0185C1.0855 77.621 2.26729 77.7221 3.0404 77.1677C7.00749 74.323 11.48 72.1544 16.7289 74.3196C21.4774 76.278 26.3926 77.1177 31.3384 74.9708C35.3264 73.2392 39.1749 71.744 43.6263 73.4923L48.2027 75.2899C52.118 76.828 56.5882 76.7926 60.4666 75.1927C62.8566 74.207 65.2857 72.8951 68.0158 72.7404C70.6918 72.5888 73.2776 73.4107 75.6288 74.3813C78.7351 75.6625 82.3715 75.9184 85.707 75.1341C88.7794 74.4116 91.0154 72.7975 93.3685 71.1098C94.1339 70.5611 94.2147 69.6047 93.5496 68.9735ZM72.7031 27.2599V36.8213L53.573 27.2599H72.7031ZM45.1641 3.02888H48.8359V12.1155H45.1641V3.02888V3.02888ZM34.4239 15.1444H59.5762V18.1733H34.4239V15.1444V15.1444ZM21.2969 27.2599H40.427L21.2969 36.8213V27.2599ZM45.1641 70.7418C45.1644 70.4727 42.547 69.9762 42.2045 69.915C39.0093 69.3445 35.579 69.7068 32.6823 70.9645C30.5805 71.877 28.5527 72.9415 26.1489 73.1968C26.1445 73.1973 26.1401 73.1977 26.1357 73.1982C24.7312 73.339 23.2937 73.2538 21.9344 72.9268L11.8942 45.0625L45.1641 28.4339C45.1641 28.4339 45.1641 70.7401 45.1641 70.7418ZM26.8047 24.231V21.2022H67.1953V24.231H26.8047ZM73.0743 70.1275C73.0947 69.6589 67.9265 69.6632 67.5803 69.6933C64.3935 69.9714 61.6366 71.3239 58.8243 72.4838C55.502 73.8541 52.0835 73.4602 48.8359 72.184V28.4339L82.1058 45.0625L73.0743 70.1275Z" fill="white"/>
<rect x="64" width="30" height="83" fill="#7A9FBA"/>
<rect x="62" width="25.932" height="82.8158" fill="white"/>
<path d="M73.552 34.144C73.216 34.144 72.848 34.136 72.448 34.12C72.064 34.104 71.672 34.08 71.272 34.048C70.888 34.016 70.504 33.976 70.12 33.928C69.736 33.88 69.384 33.816 69.064 33.736V17.608C69.384 17.528 69.736 17.464 70.12 17.416C70.504 17.368 70.888 17.328 71.272 17.296C71.672 17.264 72.064 17.24 72.448 17.224C72.832 17.208 73.192 17.2 73.528 17.2C74.488 17.2 75.384 17.272 76.216 17.416C77.064 17.56 77.792 17.808 78.4 18.16C79.024 18.496 79.512 18.944 79.864 19.504C80.216 20.064 80.392 20.752 80.392 21.568C80.392 22.48 80.176 23.232 79.744 23.824C79.312 24.4 78.736 24.832 78.016 25.12C78.992 25.408 79.768 25.864 80.344 26.488C80.92 27.112 81.208 27.992 81.208 29.128C81.208 30.792 80.592 32.048 79.36 32.896C78.144 33.728 76.208 34.144 73.552 34.144ZM71.368 26.248V32.104C71.544 32.12 71.752 32.136 71.992 32.152C72.2 32.168 72.44 32.184 72.712 32.2C73 32.2 73.328 32.2 73.696 32.2C74.384 32.2 75.032 32.16 75.64 32.08C76.264 31.984 76.808 31.824 77.272 31.6C77.736 31.376 78.104 31.064 78.376 30.664C78.664 30.264 78.808 29.76 78.808 29.152C78.808 28.608 78.704 28.152 78.496 27.784C78.288 27.4 77.984 27.096 77.584 26.872C77.2 26.648 76.736 26.488 76.192 26.392C75.648 26.296 75.04 26.248 74.368 26.248H71.368ZM71.368 24.376H73.816C74.392 24.376 74.936 24.336 75.448 24.256C75.96 24.176 76.4 24.032 76.768 23.824C77.152 23.616 77.448 23.344 77.656 23.008C77.88 22.672 77.992 22.248 77.992 21.736C77.992 21.256 77.88 20.856 77.656 20.536C77.432 20.2 77.12 19.936 76.72 19.744C76.336 19.536 75.88 19.384 75.352 19.288C74.824 19.192 74.264 19.144 73.672 19.144C73.08 19.144 72.616 19.152 72.28 19.168C71.944 19.184 71.64 19.208 71.368 19.24V24.376ZM71.392 40.36V44.584H73.456C74.624 44.584 75.664 44.68 76.576 44.872C77.504 45.064 78.288 45.376 78.928 45.808C79.568 46.224 80.056 46.768 80.392 47.44C80.728 48.096 80.896 48.904 80.896 49.864C80.896 51.624 80.256 52.952 78.976 53.848C77.696 54.728 75.888 55.168 73.552 55.168C73.216 55.168 72.848 55.16 72.448 55.144C72.064 55.128 71.672 55.104 71.272 55.072C70.888 55.04 70.504 55 70.12 54.952C69.736 54.904 69.384 54.84 69.064 54.76V38.368H79.336V40.36H71.392ZM73.744 53.128C74.368 53.128 74.96 53.08 75.52 52.984C76.096 52.888 76.6 52.72 77.032 52.48C77.464 52.224 77.808 51.888 78.064 51.472C78.32 51.056 78.448 50.528 78.448 49.888C78.448 49.216 78.328 48.664 78.088 48.232C77.864 47.8 77.536 47.456 77.104 47.2C76.672 46.944 76.136 46.768 75.496 46.672C74.872 46.56 74.16 46.504 73.36 46.504H71.392V53.056C71.568 53.072 71.776 53.088 72.016 53.104C72.224 53.12 72.472 53.128 72.76 53.128C73.048 53.128 73.376 53.128 73.744 53.128ZM71.392 61.36V65.584H73.456C74.624 65.584 75.664 65.68 76.576 65.872C77.504 66.064 78.288 66.376 78.928 66.808C79.568 67.224 80.056 67.768 80.392 68.44C80.728 69.096 80.896 69.904 80.896 70.864C80.896 72.624 80.256 73.952 78.976 74.848C77.696 75.728 75.888 76.168 73.552 76.168C73.216 76.168 72.848 76.16 72.448 76.144C72.064 76.128 71.672 76.104 71.272 76.072C70.888 76.04 70.504 76 70.12 75.952C69.736 75.904 69.384 75.84 69.064 75.76V59.368H79.336V61.36H71.392ZM73.744 74.128C74.368 74.128 74.96 74.08 75.52 73.984C76.096 73.888 76.6 73.72 77.032 73.48C77.464 73.224 77.808 72.888 78.064 72.472C78.32 72.056 78.448 71.528 78.448 70.888C78.448 70.216 78.328 69.664 78.088 69.232C77.864 68.8 77.536 68.456 77.104 68.2C76.672 67.944 76.136 67.768 75.496 67.672C74.872 67.56 74.16 67.504 73.36 67.504H71.392V74.056C71.568 74.072 71.776 74.088 72.016 74.104C72.224 74.12 72.472 74.128 72.76 74.128C73.048 74.128 73.376 74.128 73.744 74.128Z" fill="#3B7FB2"/>
</svg>
