<svg width="38" height="39" viewBox="0 0 38 39" fill="none" xmlns="http://www.w3.org/2000/svg">
<rect y="4.32098" width="32.716" height="32.716" fill="#3B7FB2"/>
<g clip-path="url(#clip0)">
<path d="M29.069 21.5774C29.069 21.5774 24.3961 19.4149 24.3902 19.4122C24.0539 19.2565 23.601 19.3386 23.3941 19.589C23.1868 19.8399 23.2968 20.1815 23.63 20.3355C23.63 20.3355 28.3059 22.4994 28.3088 22.5008C28.6449 22.6563 29.0975 22.5763 29.3041 22.3239C29.5108 22.0716 29.4055 21.733 29.069 21.5774Z" fill="white"/>
<path d="M21.5482 18.192C21.0862 18.1919 20.7378 18.5218 20.8434 18.859C20.8854 18.9933 21.0085 19.1153 21.1707 19.1924C21.2821 19.2453 21.4118 19.277 21.5466 19.277C21.7997 19.277 22.0305 19.181 22.1628 19.0194C22.4448 18.6751 22.0904 18.192 21.5482 18.192Z" fill="white"/>
<path d="M14.0576 19.561C13.8536 19.3172 13.3831 19.2384 13.0599 19.3915C13.0599 19.3915 8.41715 21.5873 8.40934 21.591C8.07477 21.7492 7.9727 22.0881 8.18343 22.3388C8.31009 22.4896 8.55452 22.578 8.79649 22.5831C8.93263 22.586 9.06797 22.5625 9.18118 22.5089C9.18118 22.5089 13.8285 20.3105 13.8318 20.3089C14.1663 20.1507 14.2678 19.812 14.0576 19.561Z" fill="white"/>
<path d="M15.892 18.1502C15.5561 18.1502 15.2617 18.3273 15.1874 18.5727C15.0862 18.9071 15.4392 19.2353 15.8934 19.2353C16.2287 19.2353 16.5247 19.0582 16.5987 18.8126C16.7001 18.4762 16.3504 18.1502 15.892 18.1502Z" fill="white"/>
<path d="M36.8596 30.2666C36.5975 30.0405 36.1406 30.0166 35.8391 30.2132C35.0677 30.7162 34.3539 31.2377 33.3418 31.4475C32.2168 31.6807 31.1475 31.4966 30.1293 31.1148L33.8966 21.6083C33.9903 21.3718 33.8594 21.1176 33.5781 20.9898L30.0926 19.4058V14.7806C30.0926 14.481 29.7688 14.238 29.3693 14.238H27.9225V12.6104C27.9225 12.3108 27.5986 12.0679 27.1991 12.0679H24.9205V10.4403C24.9205 10.1407 24.5966 9.89776 24.1971 9.89776H20.6887V6.10003C20.6887 5.80044 20.3649 5.5575 19.9653 5.5575H17.0718C16.6723 5.5575 16.3484 5.80044 16.3484 6.10003V9.89776H12.8401C12.4405 9.89776 12.1167 10.1407 12.1167 10.4403V12.0679H9.83804C9.43852 12.0679 9.11466 12.3108 9.11466 12.6104V14.238H7.66791C7.26839 14.238 6.94453 14.481 6.94453 14.7806V19.4058L3.45915 20.9897C3.17775 21.1176 3.0469 21.3718 3.14065 21.6082C3.14065 21.6082 6.89867 31.0912 6.90026 31.0953C6.83609 30.9334 5.67855 30.8268 5.4739 30.807C3.36764 30.6025 1.76601 31.3939 0.248797 32.3833C-0.0527074 32.5799 -0.084536 32.9225 0.177544 33.1486C0.42776 33.3645 0.893399 33.4007 1.19801 33.2021C2.76109 32.183 4.52331 31.4061 6.59145 32.1818C8.46239 32.8833 10.399 33.1842 12.3477 32.4151C13.9191 31.7948 15.4354 31.2591 17.1893 31.8854L18.9925 32.5294C20.5351 33.0804 22.2964 33.0677 23.8246 32.4946C24.7663 32.1414 25.7234 31.6715 26.799 31.616C27.8534 31.5617 28.8722 31.8562 29.7987 32.2039C31.0225 32.6629 32.4553 32.7545 33.7696 32.4736C34.9801 32.2147 35.8611 31.6365 36.7883 31.0319C37.0899 30.8353 37.1217 30.4927 36.8596 30.2666ZM28.6459 15.3231V18.7484L21.1084 15.3231H28.6459ZM17.7952 6.64256H19.242V9.89776H17.7952V6.64256V6.64256ZM13.5634 10.9828H23.4737V12.0679H13.5634V10.9828V10.9828ZM8.39129 15.3231H15.9287L8.39129 18.7484V15.3231ZM17.7952 30.9001C17.7953 30.8037 16.764 30.6258 16.6291 30.6039C15.3701 30.3995 14.0186 30.5293 12.8772 30.9799C12.0491 31.3067 11.2501 31.6881 10.303 31.7796C10.3013 31.7797 10.2996 31.7799 10.2978 31.78C9.74444 31.8305 9.17803 31.8 8.64244 31.6828L4.6865 21.7007L17.7952 15.7437C17.7952 15.7437 17.7952 30.8995 17.7952 30.9001ZM10.5614 14.238V13.153H26.4757V14.238H10.5614ZM28.7921 30.68C28.8002 30.5121 26.7639 30.5137 26.6274 30.5245C25.3718 30.6241 24.2856 31.1086 23.1775 31.5241C21.8685 32.015 20.5215 31.8739 19.242 31.4167V15.7437L32.3507 21.7007L28.7921 30.68Z" fill="white"/>
</g>
<rect x="25" width="12" height="38" fill="white"/>
<path d="M29.276 16.072C29.108 16.072 28.924 16.068 28.724 16.06C28.532 16.052 28.336 16.04 28.136 16.024C27.944 16.008 27.752 15.988 27.56 15.964C27.368 15.94 27.192 15.908 27.032 15.868V7.804C27.192 7.764 27.368 7.732 27.56 7.708C27.752 7.684 27.944 7.664 28.136 7.648C28.336 7.632 28.532 7.62 28.724 7.612C28.916 7.604 29.096 7.6 29.264 7.6C29.744 7.6 30.192 7.636 30.608 7.708C31.032 7.78 31.396 7.904 31.7 8.08C32.012 8.248 32.256 8.472 32.432 8.752C32.608 9.032 32.696 9.376 32.696 9.784C32.696 10.24 32.588 10.616 32.372 10.912C32.156 11.2 31.868 11.416 31.508 11.56C31.996 11.704 32.384 11.932 32.672 12.244C32.96 12.556 33.104 12.996 33.104 13.564C33.104 14.396 32.796 15.024 32.18 15.448C31.572 15.864 30.604 16.072 29.276 16.072ZM28.184 12.124V15.052C28.272 15.06 28.376 15.068 28.496 15.076C28.6 15.084 28.72 15.092 28.856 15.1C29 15.1 29.164 15.1 29.348 15.1C29.692 15.1 30.016 15.08 30.32 15.04C30.632 14.992 30.904 14.912 31.136 14.8C31.368 14.688 31.552 14.532 31.688 14.332C31.832 14.132 31.904 13.88 31.904 13.576C31.904 13.304 31.852 13.076 31.748 12.892C31.644 12.7 31.492 12.548 31.292 12.436C31.1 12.324 30.868 12.244 30.596 12.196C30.324 12.148 30.02 12.124 29.684 12.124H28.184ZM28.184 11.188H29.408C29.696 11.188 29.968 11.168 30.224 11.128C30.48 11.088 30.7 11.016 30.884 10.912C31.076 10.808 31.224 10.672 31.328 10.504C31.44 10.336 31.496 10.124 31.496 9.868C31.496 9.628 31.44 9.428 31.328 9.268C31.216 9.1 31.06 8.968 30.86 8.872C30.668 8.768 30.44 8.692 30.176 8.644C29.912 8.596 29.632 8.572 29.336 8.572C29.04 8.572 28.808 8.576 28.64 8.584C28.472 8.592 28.32 8.604 28.184 8.62V11.188ZM28.196 19.68V21.792H29.228C29.812 21.792 30.332 21.84 30.788 21.936C31.252 22.032 31.644 22.188 31.964 22.404C32.284 22.612 32.528 22.884 32.696 23.22C32.864 23.548 32.948 23.952 32.948 24.432C32.948 25.312 32.628 25.976 31.988 26.424C31.348 26.864 30.444 27.084 29.276 27.084C29.108 27.084 28.924 27.08 28.724 27.072C28.532 27.064 28.336 27.052 28.136 27.036C27.944 27.02 27.752 27 27.56 26.976C27.368 26.952 27.192 26.92 27.032 26.88V18.684H32.168V19.68H28.196ZM29.372 26.064C29.684 26.064 29.98 26.04 30.26 25.992C30.548 25.944 30.8 25.86 31.016 25.74C31.232 25.612 31.404 25.444 31.532 25.236C31.66 25.028 31.724 24.764 31.724 24.444C31.724 24.108 31.664 23.832 31.544 23.616C31.432 23.4 31.268 23.228 31.052 23.1C30.836 22.972 30.568 22.884 30.248 22.836C29.936 22.78 29.58 22.752 29.18 22.752H28.196V26.028C28.284 26.036 28.388 26.044 28.508 26.052C28.612 26.06 28.736 26.064 28.88 26.064C29.024 26.064 29.188 26.064 29.372 26.064ZM28.196 30.68V32.792H29.228C29.812 32.792 30.332 32.84 30.788 32.936C31.252 33.032 31.644 33.188 31.964 33.404C32.284 33.612 32.528 33.884 32.696 34.22C32.864 34.548 32.948 34.952 32.948 35.432C32.948 36.312 32.628 36.976 31.988 37.424C31.348 37.864 30.444 38.084 29.276 38.084C29.108 38.084 28.924 38.08 28.724 38.072C28.532 38.064 28.336 38.052 28.136 38.036C27.944 38.02 27.752 38 27.56 37.976C27.368 37.952 27.192 37.92 27.032 37.88V29.684H32.168V30.68H28.196ZM29.372 37.064C29.684 37.064 29.98 37.04 30.26 36.992C30.548 36.944 30.8 36.86 31.016 36.74C31.232 36.612 31.404 36.444 31.532 36.236C31.66 36.028 31.724 35.764 31.724 35.444C31.724 35.108 31.664 34.832 31.544 34.616C31.432 34.4 31.268 34.228 31.052 34.1C30.836 33.972 30.568 33.884 30.248 33.836C29.936 33.78 29.58 33.752 29.18 33.752H28.196V37.028C28.284 37.036 28.388 37.044 28.508 37.052C28.612 37.06 28.736 37.064 28.88 37.064C29.024 37.064 29.188 37.064 29.372 37.064Z" fill="#3B7FB2"/>
<defs>
<clipPath id="clip0">
<rect width="37.037" height="27.7778" fill="white" transform="translate(0 5.55554)"/>
</clipPath>
</defs>
</svg>
