<svg width="21" height="21" viewBox="0 0 21 21" fill="none" xmlns="http://www.w3.org/2000/svg">
<path d="M20.9553 16.0233C20.8959 15.8551 20.518 15.6073 19.8218 15.2806C19.6332 15.1776 19.3645 15.0377 19.0168 14.8601C18.6687 14.6825 18.3528 14.5189 18.0696 14.3694C17.7858 14.2199 17.52 14.0751 17.2716 13.9352C17.2319 13.9071 17.1076 13.8255 16.8988 13.6897C16.6898 13.5544 16.5135 13.4539 16.369 13.3883C16.2249 13.3232 16.0831 13.2904 15.9439 13.2904C15.7451 13.2904 15.4967 13.4236 15.1985 13.6897C14.9003 13.9562 14.6268 14.2456 14.3783 14.5589C14.1298 14.872 13.8662 15.1615 13.5881 15.4278C13.3095 15.6942 13.0807 15.8272 12.9019 15.8272C12.8121 15.8272 12.7002 15.8037 12.5661 15.7573C12.4321 15.7107 12.3301 15.6706 12.2601 15.6384C12.1907 15.6055 12.0717 15.5403 11.9025 15.4418C11.733 15.3437 11.6388 15.29 11.6189 15.2806C10.2567 14.5703 9.08842 13.7574 8.11384 12.8421C7.13957 11.9262 6.27434 10.8285 5.51865 9.5484C5.50873 9.5297 5.45142 9.4409 5.34709 9.28214C5.24261 9.12325 5.17297 9.01128 5.13817 8.94569C5.10338 8.88036 5.06112 8.78454 5.01149 8.65843C4.96186 8.53232 4.93694 8.42727 4.93694 8.34308C4.93694 8.17501 5.07867 7.96 5.36208 7.69836C5.64545 7.43686 5.95378 7.18917 6.28677 6.95575C6.62002 6.72234 6.92804 6.46531 7.21151 6.18511C7.49487 5.90477 7.63655 5.6713 7.63655 5.48447C7.63655 5.35375 7.60176 5.22048 7.53222 5.08504C7.46264 4.94931 7.35575 4.78369 7.21151 4.58739C7.06722 4.39118 6.98023 4.2745 6.95035 4.23694C6.80136 4.00353 6.6474 3.75362 6.48811 3.48732C6.32883 3.22106 6.15496 2.92427 5.96595 2.59729C5.7771 2.27046 5.62805 2.0181 5.51855 1.8406C5.17072 1.18669 4.90726 0.831489 4.72823 0.775626C4.65859 0.747597 4.55411 0.733459 4.41504 0.733459C4.14641 0.733459 3.79597 0.780093 3.36346 0.873656C2.93079 0.967071 2.59032 1.06505 2.3417 1.16799C1.84451 1.3641 1.31755 1.93401 0.760646 2.87754C0.253531 3.75563 0 4.62474 0 5.48423C0 5.7363 0.0173966 5.98154 0.0521899 6.22001C0.0869832 6.45824 0.149151 6.7269 0.238747 7.02595C0.328185 7.32489 0.400332 7.54697 0.454873 7.69158C0.509466 7.8363 0.61139 8.09553 0.760594 8.46939C0.909589 8.84315 0.999184 9.07195 1.02901 9.15604C1.377 10.0717 1.78966 10.8892 2.26689 11.6087C3.05209 12.8046 4.12363 14.0405 5.48088 15.3159C6.83819 16.5912 8.15323 17.598 9.42606 18.3361C10.1917 18.7845 11.062 19.1722 12.0363 19.4994C12.1259 19.5273 12.3694 19.6113 12.767 19.7518C13.1648 19.8919 13.4408 19.9876 13.5948 20.039C13.7488 20.0905 13.9852 20.1583 14.3031 20.2425C14.6217 20.3267 14.9074 20.3851 15.1609 20.418C15.4146 20.4503 15.6756 20.4669 15.9439 20.4669C16.8586 20.4669 17.7836 20.2285 18.7183 19.7521C19.7223 19.229 20.3287 18.7338 20.5375 18.2662C20.6473 18.0329 20.7513 17.7129 20.8507 17.3063C20.9505 16.9 21 16.5707 21 16.3184C21.0003 16.1872 20.9853 16.0892 20.9553 16.0233Z" fill="#3B7FB3"/>
</svg>
