<svg width="21" height="20" viewBox="0 0 21 20" fill="none" xmlns="http://www.w3.org/2000/svg">
<path d="M20.9553 15.3162C20.8959 15.1477 20.518 14.8995 19.8218 14.5722C19.6332 14.4691 19.3645 14.3289 19.0168 14.151C18.6687 13.9732 18.3528 13.8093 18.0696 13.6595C17.7858 13.5098 17.52 13.3647 17.2716 13.2245C17.2319 13.1964 17.1076 13.1146 16.8988 12.9786C16.6898 12.843 16.5135 12.7424 16.369 12.6767C16.2249 12.6115 16.0831 12.5786 15.9439 12.5786C15.7451 12.5786 15.4967 12.7121 15.1985 12.9786C14.9003 13.2455 14.6268 13.5355 14.3783 13.8493C14.1298 14.163 13.8662 14.4529 13.5881 14.7197C13.3095 14.9865 13.0807 15.1198 12.9019 15.1198C12.8121 15.1198 12.7002 15.0963 12.5661 15.0498C12.4321 15.003 12.3301 14.963 12.2601 14.9307C12.1907 14.8977 12.0717 14.8324 11.9025 14.7338C11.733 14.6355 11.6388 14.5816 11.6189 14.5722C10.2567 13.8607 9.08842 13.0464 8.11384 12.1295C7.13957 11.212 6.27434 10.1125 5.51865 8.83015C5.50873 8.81141 5.45142 8.72246 5.34709 8.56344C5.24261 8.40426 5.17297 8.2921 5.13817 8.2264C5.10338 8.16095 5.06112 8.06497 5.01149 7.93864C4.96186 7.81232 4.93694 7.70709 4.93694 7.62276C4.93694 7.45439 5.07867 7.23901 5.36208 6.97692C5.64545 6.71497 5.95378 6.46685 6.28677 6.23303C6.62002 5.99921 6.92804 5.74174 7.21151 5.46106C7.49487 5.18023 7.63655 4.94637 7.63655 4.75921C7.63655 4.62826 7.60176 4.49476 7.53222 4.35909C7.46264 4.22313 7.35575 4.05722 7.21151 3.86058C7.06722 3.66403 6.98023 3.54715 6.95035 3.50953C6.80136 3.27571 6.6474 3.02537 6.48811 2.75861C6.32883 2.49189 6.15496 2.19459 5.96595 1.86705C5.7771 1.53966 5.62805 1.28686 5.51855 1.10905C5.17072 0.454015 4.90726 0.0981986 4.72823 0.0422396C4.65859 0.0141618 4.55411 0 4.41504 0C4.14641 0 3.79597 0.0467144 3.36346 0.140438C2.93079 0.234014 2.59032 0.332164 2.3417 0.43528C1.84451 0.631726 1.31755 1.20263 0.760646 2.14778C0.253531 3.02739 0 3.898 0 4.75897C0 5.01147 0.0173966 5.25714 0.0521899 5.49602C0.0869832 5.73466 0.149151 6.00378 0.238747 6.30334C0.328185 6.60281 0.400332 6.82527 0.454873 6.97013C0.509466 7.11509 0.61139 7.37478 0.760594 7.74928C0.909589 8.12368 0.999184 8.35288 1.02901 8.43711C1.377 9.35438 1.78966 10.1733 2.26689 10.894C3.05209 12.0919 4.12363 13.33 5.48088 14.6076C6.83819 15.8851 8.15323 16.8936 9.42606 17.633C10.1917 18.0822 11.062 18.4705 12.0363 18.7983C12.1259 18.8262 12.3694 18.9104 12.767 19.0511C13.1648 19.1915 13.4408 19.2874 13.5948 19.3389C13.7488 19.3904 13.9852 19.4584 14.3031 19.5427C14.6217 19.627 14.9074 19.6855 15.1609 19.7185C15.4146 19.7508 15.6756 19.7675 15.9439 19.7675C16.8586 19.7675 17.7836 19.5287 18.7183 19.0515C19.7223 18.5275 20.3287 18.0314 20.5375 17.563C20.6473 17.3293 20.7513 17.0087 20.8507 16.6015C20.9505 16.1944 21 15.8646 21 15.6118C21.0003 15.4804 20.9853 15.3823 20.9553 15.3162Z" fill="white"/>
</svg>
